<svg id="Layer_1" data-name="Layer 1" xmlns="http://www.w3.org/2000/svg" width="1001" height="1001" viewBox="0 0 1001 1001"><defs><style>.cls-1,.cls-3{fill:#5dbd77;}.cls-1{stroke:#fff;stroke-miterlimit:10;}.cls-2{fill:#fff;}</style></defs><rect class="cls-1" x="0.5" y="0.5" width="1000" height="1000"/><path class="cls-2" d="M305.7646,190.93V606.2545h-56.62v54.33h56.62V816.3313H573.32a184.7,184.7,0,0,0,95.4763-32.5982c16.5371-11.4437,55.8687-39.5551,73.2725-95.3795,4.3534-13.964,17.38-57.8988,0-107.4531-4.3646-12.444-19.7242-51.1243-55.5095-73.6477-28.5739-17.9848-56.5586-17.1006-56.62-25.354-.0514-6.9451,19.7687-6.9926,41.077-21.7321,33.1808-22.952,43.9433-63.5264,46.6279-73.6476,2.3065-8.6953,11.6128-46.9358-3.3305-89.343-20.0383-56.866-69.3112-80.4444-95.4763-92.9651a211.53,211.53,0,0,0-94.3661-20.5248l-58.84-.0175H315.7562" transform="translate(0.5 0.5)"/><path class="cls-3" d="M541.6126,250.613a194.59,194.59,0,0,1,24.5033,3.2671c22.0869,4.3872,41.2028,8.1844,55.87,21.5957,20.3744,18.63,21.8542,46.3859,22.5407,59.2652.6186,11.6032,2.0745,38.9119-16.3355,62.075-17.0771,21.4862-42.18,27.9963-53.9073,31.0375a117.3134,117.3134,0,0,1-18.7858,3.2671h-174.79V250.613Z" transform="translate(0.5 0.5)"/><path class="cls-3" d="M380.7076,523.5442q.2163,41.4017.4323,82.8034H501.6347v53.9348H381.14v81.7448H561.4832a129.6824,129.6824,0,0,0,24.7375-4.2137c12.706-3.4568,33.2669-9.0507,51.8685-27.81a105.9676,105.9676,0,0,0,28.7274-56.4628c2.2-13.5821,1.0514-24.0913,0-33.7092-1.755-16.0547-3.8509-35.2268-16.7577-52.2492-8.6653-11.4283-18.5109-17.0175-27.1313-21.9111-11.5275-6.544-23.0035-9.7889-45.4848-16.0118-9.71-2.6878-17.757-4.6447-23.1414-5.8991h-154.01Z" transform="translate(0.5 0.5)"/></svg>